# xmcd
#
# Track frame offsets:
#	150
#	14282
#	33892
#	56882
#	75487
#	90170
#	135394
#	147207
#	170637
#	190768
#
# Disc length: 2774 seconds
#
# Revision: 1
# Processed by: cddbd v1.5.2PL0 Copyright (c) Steve Scherf et al.
# Submitted via: audiograbber 1.81.03
#
DISCID=740ad40a
DTITLE=The Charles`Walker Band - The`World And Things Promo
DYEAR=2008
DGENRE=Blues
TTITLE0=Dog Catcher
TTITLE1=Slow Thunder
TTITLE2=Outta Mind
TTITLE3=Ain't No Doors
TTITLE4=Hand Clapping
TTITLE5=Gambling On Love
TTITLE6=Mil Town Blues
TTITLE7=Cold As Hell
TTITLE8=Queen Bee
TTITLE9=Holding Out
EXTD=
EXTT0=
EXTT1=
EXTT2=
EXTT3=
EXTT4=
EXTT5=
EXTT6=
EXTT7=
EXTT8=
EXTT9=
PLAYORDER=
